<?xml version="1.0" encoding="UTF-8"?>
<svg xmlns="http://www.w3.org/2000/svg" xmlns:xlink="http://www.w3.org/1999/xlink" width="81.3pt" height="108.623pt" viewBox="0 0 81.3 108.623" version="1.1">
<g id="surface1">
<path style="fill:none;stroke-width:0.3985;stroke-linecap:butt;stroke-linejoin:miter;stroke:rgb(0%,0%,0%);stroke-opacity:1;stroke-miterlimit:10;" d="M -7.275054 72.734598 L 78.015125 72.734598 " transform="matrix(0.7,0,0,-0.7,15.1941,91.1525)"/>
<path style=" stroke:none;fill-rule:nonzero;fill:rgb(0%,0%,0%);fill-opacity:1;" d="M 71.199219 40.238281 L 68.96875 39.125 L 69.804688 40.238281 L 68.96875 41.355469 "/>
<path style="fill:none;stroke-width:0.3985;stroke-linecap:butt;stroke-linejoin:miter;stroke:rgb(0%,0%,0%);stroke-opacity:1;stroke-miterlimit:10;" d="M 0.00173214 -10.52433 L 0.00173214 113.794866 " transform="matrix(0.7,0,0,-0.7,15.1941,91.1525)"/>
<path style=" stroke:none;fill-rule:nonzero;fill:rgb(0%,0%,0%);fill-opacity:1;" d="M 15.195312 10.101562 L 14.078125 12.332031 L 15.195312 11.496094 L 16.308594 12.332031 "/>
<path style="fill-rule:nonzero;fill:rgb(50%,50%,50%);fill-opacity:0.4;stroke-width:0.3985;stroke-linecap:butt;stroke-linejoin:miter;stroke:rgb(0%,0%,0%);stroke-opacity:0.4;stroke-miterlimit:10;" d="M 0.00173214 72.734598 L 2.00508 78.136384 L 4.014009 80.374107 L 6.017357 82.092857 L 8.026286 83.53817 L 10.029634 84.816071 L 12.038562 85.965625 L 14.047491 87.025893 L 16.050839 88.013616 L 18.059768 88.939955 L 20.063116 89.816071 L 22.072045 90.653125 L 24.075393 91.445536 L 26.084321 92.210045 L 28.08767 92.946652 L 30.096598 93.655357 L 32.105527 94.341741 L 34.108875 95.005804 L 36.117804 95.653125 L 38.121152 96.283705 L 40.13008 96.891964 L 42.133429 97.489062 L 44.142357 98.075 L 46.145705 98.644196 L 48.154634 99.202232 L 50.163562 99.743527 L 52.166911 100.279241 L 54.175839 100.803795 L 56.179187 101.322768 L 58.188116 101.825 L 58.188116 72.734598 Z M 0.00173214 72.734598 " transform="matrix(0.7,0,0,-0.7,15.1941,91.1525)"/>
<path style="fill-rule:nonzero;fill:rgb(50%,50%,50%);fill-opacity:0.4;stroke-width:0.3985;stroke-linecap:butt;stroke-linejoin:miter;stroke:rgb(0%,0%,0%);stroke-opacity:0.4;stroke-miterlimit:10;" d="M 0.00173214 72.734598 L 2.00508 70.72567 L 4.014009 68.722321 L 6.017357 66.713393 L 8.026286 64.710045 L 10.029634 62.701116 L 12.038562 60.697768 L 14.047491 58.688839 L 16.050839 56.679911 L 18.059768 54.676562 L 20.063116 52.667634 L 22.072045 50.664286 L 24.075393 48.655357 L 26.084321 46.652009 L 28.08767 44.64308 L 30.096598 42.639732 L 32.105527 40.630804 L 34.108875 38.621875 L 36.117804 36.618527 L 38.121152 34.609598 L 40.13008 32.60625 L 42.133429 30.597321 L 44.142357 28.593973 L 46.145705 26.585045 L 48.154634 24.581696 L 50.163562 22.572768 L 52.166911 20.563839 L 54.175839 18.560491 L 56.179187 16.551562 L 58.188116 14.548214 L 58.188116 72.734598 Z M 0.00173214 72.734598 " transform="matrix(0.7,0,0,-0.7,15.1941,91.1525)"/>
<path style="fill-rule:nonzero;fill:rgb(59.999084%,59.999084%,100%);fill-opacity:0.4;stroke-width:0.3985;stroke-linecap:butt;stroke-linejoin:miter;stroke:rgb(0%,0%,0%);stroke-opacity:0.4;stroke-miterlimit:10;" d="M 0.00173214 72.734598 L 0.503964 75.435491 L 1.000616 76.551562 L 1.502848 77.410937 L 2.00508 78.136384 L 2.507312 78.772545 L 3.009545 79.352902 L 3.511777 79.883036 L 4.014009 80.374107 L 4.516241 80.837277 L 5.018473 81.278125 L 5.515125 81.691071 L 6.017357 82.092857 L 6.519589 82.472321 L 7.021821 82.840625 L 7.524054 83.197768 L 8.026286 83.53817 L 8.528518 83.872991 L 9.03075 84.196652 L 9.532982 84.509152 L 10.029634 84.816071 L 10.531866 85.11183 L 11.034098 85.402009 L 11.53633 85.686607 L 12.038562 85.965625 L 12.540795 86.239062 L 13.043027 86.50692 L 13.545259 86.769196 L 14.047491 87.025893 L 14.544143 87.282589 L 14.544143 72.734598 Z M 0.00173214 72.734598 " transform="matrix(0.7,0,0,-0.7,15.1941,91.1525)"/>
<path style="fill-rule:nonzero;fill:rgb(59.999084%,59.999084%,100%);fill-opacity:0.4;stroke-width:0.3985;stroke-linecap:butt;stroke-linejoin:miter;stroke:rgb(0%,0%,0%);stroke-opacity:0.4;stroke-miterlimit:10;" d="M 0.00173214 72.734598 L 0.503964 72.232366 L 1.000616 71.730134 L 2.507312 70.223437 L 3.009545 69.726786 L 5.018473 67.717857 L 5.515125 67.215625 L 7.021821 65.708929 L 7.524054 65.212277 L 9.532982 63.203348 L 10.029634 62.701116 L 11.53633 61.19442 L 12.038562 60.697768 L 14.047491 58.688839 L 14.544143 58.186607 L 14.544143 72.734598 Z M 0.00173214 72.734598 " transform="matrix(0.7,0,0,-0.7,15.1941,91.1525)"/>
<path style="fill:none;stroke-width:0.79701;stroke-linecap:butt;stroke-linejoin:miter;stroke:rgb(0%,0%,0%);stroke-opacity:1;stroke-miterlimit:10;" d="M 0.00173214 72.734598 L 3.031866 79.375223 L 6.062 82.126339 L 9.092134 84.235714 L 12.122268 86.010268 L 15.152402 87.578348 L 18.182536 88.995759 L 21.21267 90.301562 L 24.242804 91.5125 L 27.272937 92.650893 L 30.303071 93.727902 L 33.338786 94.754687 L 36.36892 95.73125 L 39.399054 96.67433 L 42.429187 97.578348 L 45.459321 98.448884 L 48.489455 99.291518 L 51.519589 100.11183 L 54.549723 100.904241 L 57.579857 101.67433 L 60.609991 102.427679 L 63.640125 103.158705 L 66.670259 103.878571 L 69.700393 104.576116 L 72.736107 105.2625 " transform="matrix(0.7,0,0,-0.7,15.1941,91.1525)"/>
<path style="fill:none;stroke-width:0.79701;stroke-linecap:butt;stroke-linejoin:miter;stroke:rgb(0%,0%,0%);stroke-opacity:1;stroke-miterlimit:10;" d="M 0.00173214 72.734598 L 12.122268 60.614062 L 15.152402 57.578348 L 30.303071 42.427679 L 33.338786 39.397545 L 51.519589 21.216741 L 54.549723 18.181027 L 69.700393 3.030357 L 72.736107 0.000223214 " transform="matrix(0.7,0,0,-0.7,15.1941,91.1525)"/>
</g>
</svg>
